<svg id="Icon_feather-settings" data-name="Icon feather-settings" xmlns="http://www.w3.org/2000/svg" width="17.711" height="17.711" fill="#green" viewBox="0 0 17.711 17.711">
  <path id="Trazado_19" data-name="Trazado 19" d="M14.952,12A2.952,2.952,0,1,1,12,14.952,2.955,2.955,0,0,1,14.952,12Zm0,4.428a1.476,1.476,0,1,0-1.476-1.476A1.478,1.478,0,0,0,14.952,16.428Z" transform="translate(-6.096 -6.096)" fill="#3e323e"/>
  <path id="Trazado_20" data-name="Trazado 20" d="M8.914,17.711A2.216,2.216,0,0,1,6.7,15.5v-.056a.477.477,0,0,0-.314-.432l-.043-.017a.48.48,0,0,0-.527.094l-.041.041a2.215,2.215,0,1,1-3.132-3.132l.04-.04a.477.477,0,0,0,.094-.527l0-.007a.479.479,0,0,0-.438-.291H2.214a2.214,2.214,0,0,1,0-4.428H2.27A.477.477,0,0,0,2.7,6.387q.008-.022.017-.043a.477.477,0,0,0-.094-.527l-.041-.041A2.215,2.215,0,1,1,5.717,2.644l.04.04a.48.48,0,0,0,.527.094.738.738,0,0,1,.147-.047.479.479,0,0,0,.21-.394V2.214a2.214,2.214,0,0,1,4.428,0v.064a.479.479,0,0,0,.291.438l.007,0a.48.48,0,0,0,.527-.094l.041-.041a2.215,2.215,0,1,1,3.132,3.132l-.04.04a.477.477,0,0,0-.094.527.738.738,0,0,1,.047.147.479.479,0,0,0,.394.21H15.5a2.214,2.214,0,0,1,0,4.428h-.064a.479.479,0,0,0-.438.291l0,.007a.477.477,0,0,0,.094.527l.041.041a2.215,2.215,0,1,1-3.132,3.132l-.04-.04a.479.479,0,0,0-.527-.094l-.007,0a.479.479,0,0,0-.291.438V15.5A2.216,2.216,0,0,1,8.914,17.711Zm-2-4.079a1.945,1.945,0,0,1,1.258,1.781q0,.009,0,.017V15.5a.738.738,0,0,0,1.476,0v-.125s0,0,0,0a1.964,1.964,0,0,1,3.335-1.4l.006.006.044.044a.739.739,0,1,0,1.045-1.044l-.045-.045-.006-.006a1.965,1.965,0,0,1,1.4-3.335H15.5a.738.738,0,0,0,0-1.476h-.128a1.955,1.955,0,0,1-1.79-1.185.738.738,0,0,1-.053-.194,1.945,1.945,0,0,1,.448-2.014l.006-.006.044-.044a.739.739,0,1,0-1.044-1.045l-.045.045-.006.006a1.965,1.965,0,0,1-3.335-1.4s0,0,0,0V2.214a.738.738,0,1,0-1.476,0v.125s0,0,0,0a1.955,1.955,0,0,1-1.185,1.79.738.738,0,0,1-.195.053,1.956,1.956,0,0,1-2.014-.448l-.006-.006-.044-.044A.739.739,0,1,0,3.628,4.732l.045.045.006.006a1.946,1.946,0,0,1,.4,2.136A1.945,1.945,0,0,1,2.3,8.176H2.214a.738.738,0,1,0,0,1.476h.128a1.965,1.965,0,0,1,1.4,3.335l-.006.006-.044.044a.739.739,0,1,0,1.044,1.045l.045-.045.006-.006a1.955,1.955,0,0,1,2.136-.4Z" fill="#3e323e"/>
</svg>
