<svg xmlns="http://www.w3.org/2000/svg" width="220.632" height="220.596" viewBox="0 0 220.632 220.596">
  <g id="WS3Sdq" transform="translate(-201.009 -136.951)">
    <g id="Grupo_39" data-name="Grupo 39" transform="translate(201.009 136.951)">
      <path id="Trazado_20" data-name="Trazado 20" d="M421.634,247.572c.647,55.4-44.564,109.352-109.4,109.969A109.9,109.9,0,0,1,201.009,247.515c.024-63.678,51.161-109.79,108.758-110.554A110.384,110.384,0,0,1,421.634,247.572Z" transform="translate(-201.009 -136.951)" fill="#231f20" fill-rule="evenodd"/>
      <path id="Trazado_21" data-name="Trazado 21" d="M242.611,161.256a81.906,81.906,0,0,1,12.025-8.4A102.565,102.565,0,0,1,295.4,138.82c32.151-3.754,60.694,4.81,85.069,26.2,18.488,16.22,29.794,36.7,34.419,60.855a109.185,109.185,0,0,1,1.59,13.4c.1,1.519.045,1.546-1.358.976-7.656-3.106-15.14-6.636-22.859-9.593a115.605,115.605,0,0,0-18.98-5.574,2.139,2.139,0,0,1-1.925-1.859A38.056,38.056,0,0,0,299.91,217.4a2.077,2.077,0,0,1-2.157,1.39,224.455,224.455,0,0,0-55.664,8.844c-12.869,3.715-25.434,8.3-37.9,13.174-.648.254-1.3.483-2.074.77a17.31,17.31,0,0,1,.1-3.81,106.135,106.135,0,0,1,26.628-63.565c.83-.955,1.728-1.853,2.593-2.775.388.656-.14,1.065-.445,1.51a31.4,31.4,0,0,0-5.395,12.833c-.892,5.616.146,10.733,4.207,14.922a15.489,15.489,0,0,0,8.089,4.353,29.442,29.442,0,0,0,17.229-1.793,40.607,40.607,0,0,0,13.854-9.065c5.305-5.284,9.259-11.425,10.267-19.058,1.379-10.452-4.694-17.649-14.17-19-7.281-1.032-13.937.961-20.266,4.419C244.145,160.922,243.575,161.757,242.611,161.256Z" transform="translate(-198.964 -134.94)" fill="#f13e2d" fill-rule="evenodd"/>
      <path id="Trazado_22" data-name="Trazado 22" d="M214.674,183.753a266.257,266.257,0,0,1,30.769-6.37c6.946-1.026,13.926-1.731,20.929-2.241,2.7-.2,5.407-.251,8.107-.445.85-.063,1.11.388,1.405,1.017,4.8,10.22,12.475,17.33,23.274,20.651,13.013,4,24.93,1.495,35.558-7a33.474,33.474,0,0,0,7.257-8.03,1.564,1.564,0,0,1,1.93-.8A266.5,266.5,0,0,1,382.942,192.1c1.963.737,3.894,1.569,5.887,2.205,1.044.334,1.107.877.892,1.749a113.423,113.423,0,0,1-3.921,13.042,98.374,98.374,0,0,1-8.1,17.008c-.316.516-.7.988-1.059,1.48-1.122,1.659-2.8,2.748-4.255,4.055a98.624,98.624,0,0,1-13.233,10.088,97.6,97.6,0,0,1-26.935,11.8,91.123,91.123,0,0,1-17.688,3,96.51,96.51,0,0,1-46.42-8.1,95.161,95.161,0,0,1-35.812-27.6,96.6,96.6,0,0,1-17.927-35.445C214.211,184.788,213.946,184.18,214.674,183.753Z" transform="translate(-174.861 -62.08)" fill="#fefefe" fill-rule="evenodd"/>
      <path id="Trazado_23" data-name="Trazado 23" d="M237.177,177.728c-.31.4-.176.809-.063,1.244a94.346,94.346,0,0,0,10.837,25.488,96.122,96.122,0,0,0,135.457,29.677,137.588,137.588,0,0,0,14.3-11.461c.454-.4.958-.749,1.441-1.122a30.666,30.666,0,0,1-3.748,6.072,102.582,102.582,0,0,1-14.8,16.921,106.638,106.638,0,0,1-48.031,25.682,107.905,107.905,0,0,1-17.4,2.647c-2.527.176-5.058.23-7.573.3a86.2,86.2,0,0,1-10.449-.507,107.841,107.841,0,0,1-94.2-82.166c-.289-1.179.045-1.584,1.092-1.984,10.345-3.933,20.821-7.463,31.509-10.357C236.088,178.011,236.634,177.871,237.177,177.728Z" transform="translate(-197.363 -56.055)" fill="#a09d9d" fill-rule="evenodd"/>
      <path id="Trazado_24" data-name="Trazado 24" d="M204.985,201.442c5.168-1.972,10.348-3.9,15.576-5.711,5.923-2.047,11.864-4.04,17.918-5.631,7.537-1.978,15.1-3.894,22.791-5.2,5.968-1.014,11.95-1.895,17.987-2.4,3.781-.316,7.552-.668,11.348-.806,1.522-.057,3.047-.221,4.571-.191.722.012.967-.364,1.2-.949A35.4,35.4,0,0,1,311,163.085a34.383,34.383,0,0,1,14.343-4.983A35.792,35.792,0,0,1,364.6,185.714a2.066,2.066,0,0,0,1.9,1.835c11.309,2.145,21.943,6.287,32.414,10.933,4.07,1.808,8.188,3.509,12.305,5.2A1.571,1.571,0,0,1,412.4,205.2a75.762,75.762,0,0,1-1.567,20.3c-.245,1.018-.794.8-1.438.546q-10.411-4.131-21.078-7.546a254.089,254.089,0,0,0-26.544-6.964c-.9-.182-1.185.26-1.528.818a35.14,35.14,0,0,1-11.16,11.425A35.842,35.842,0,0,1,296.454,207a1.488,1.488,0,0,0-1.763-1.068c-4.35.272-8.713.415-13.051.812-5.72.519-11.428,1.143-17.121,1.966-7.809,1.128-15.537,2.644-23.226,4.365-2.879.644-5.666,1.7-8.537,2.387-3.6.859-7.116,2.014-10.67,3.023a5.583,5.583,0,0,1-1.868.558c-1.322.469-2.5-.1-3.643-.588a19.1,19.1,0,0,1-12-15.629C204.492,202.29,204.4,201.767,204.985,201.442Z" transform="translate(-194.058 -95.527)" fill="#58585a" fill-rule="evenodd"/>
      <path id="Trazado_25" data-name="Trazado 25" d="M227.377,149.592c.552.1.877-.334,1.274-.564a35.057,35.057,0,0,1,18.718-5.174c8.021.206,14.4,4.634,16.45,11.527a20.237,20.237,0,0,1-.239,11.9c-2.808,9.229-8.8,16-16.763,21.126-6.248,4.019-13.054,6.281-20.594,5.881-8.6-.454-14.958-5.783-16.247-13.711a23.46,23.46,0,0,1,1.838-12.822,35.076,35.076,0,0,1,3.825-6.866c.239-.337.665-.6.57-1.119q1.611-1.719,3.223-3.434A68.742,68.742,0,0,1,227.377,149.592Z" transform="translate(-183.729 -123.277)" fill="#fefefe" fill-rule="evenodd"/>
      <path id="Trazado_26" data-name="Trazado 26" d="M210.266,172.447c-.477,1.28.03,2.527.352,3.682a18.905,18.905,0,0,0,13.711,13.815,5.8,5.8,0,0,0,1.17.1c-3.53,1.194-7.069,2.363-10.587,3.584-3.4,1.182-6.827,2.31-10.127,3.766-.8.355-.988-.012-1.161-.656-.591-2.184-.862-4.425-1.241-6.645-.743-4.33-.454-8.695-.531-13.048a1.643,1.643,0,0,1,1.25-1.838C205.51,174.342,207.807,173.187,210.266,172.447Z" transform="translate(-199.339 -66.532)" fill="#363638" fill-rule="evenodd"/>
      <path id="Trazado_27" data-name="Trazado 27" d="M264.382,160.743a26.361,26.361,0,1,1-26.446,26.306A26.25,26.25,0,0,1,264.382,160.743Z" transform="translate(-127.752 -89.756)" fill="#231f20" fill-rule="evenodd"/>
      <path id="Trazado_28" data-name="Trazado 28" d="M238.687,185.435a24.19,24.19,0,0,1,24.318-23.96c13.642.164,24.109,11.091,23.919,24.975-.176,12.992-11.339,23.471-24.8,23.277C249.238,209.545,238.529,198.448,238.687,185.435Z" transform="translate(-126.265 -88.301)" fill="#fefefe" fill-rule="evenodd"/>
      <path id="Trazado_29" data-name="Trazado 29" d="M259.149,163.339a18.574,18.574,0,1,1-18.589,18.345A18.577,18.577,0,0,1,259.149,163.339Z" transform="translate(-122.548 -84.601)" fill="#231f20" fill-rule="evenodd"/>
      <path id="Trazado_30" data-name="Trazado 30" d="M275.262,181.234c-.468,9.978-8.3,17.22-18.121,16.751-9.083-.433-16.548-8.605-16.08-17.6.5-9.569,8.453-16.99,17.721-16.53C268.142,164.319,275.679,172.271,275.262,181.234Z" transform="translate(-121.594 -83.626)" fill="#fefefe" fill-rule="evenodd"/>
    </g>
  </g>
</svg>
